<?xml version="1.0" encoding="utf-8"?>
<!-- Generator: Adobe Illustrator 27.2.0, SVG Export Plug-In . SVG Version: 6.00 Build 0)  -->
<svg version="1.1" id="polyLogo" xmlns="http://www.w3.org/2000/svg" xmlns:xlink="http://www.w3.org/1999/xlink" x="0px" y="0px"
	 viewBox="0 0 81.5 77" style="enable-background:new 0 0 81.5 77;" xml:space="preserve">
<style type="text/css">
	.st0{fill:#37B34A;}
</style>
<path id="polytechLogo" class="st0" d="M63.6,12.4c1.5,0.6,4,4.4,3.4,8.6c-2.9,2.3-6.3,3.9-9.6,4.4v26.4h9.8c0,4.1-0.6,7.3-1.3,8.5
	H48V25.8H35.5v20.5c0,10.4-5.8,15.4-13.3,15.4c-2.1,0-4.6-0.3-6.7-0.9c-1-1.3-1.5-5.3-1.6-10.3c4.9,2.4,11.6,3.5,12.2-4.2V27.1
	c-7.5,0.8-10.2,6-12.8,9.5c0.1-4.7,0.3-9,0.6-11.9c5.1-5.5,10.9-8.1,22.2-8.1h16.2C56.2,16.8,60.1,15.3,63.6,12.4 M40.6,4.9
	C26,4.9,20.1,5.8,20.1,5.8C13.8,6.1,9.4,10.4,8.8,17.7c0,0-1.1,9.5-1.1,20.6s1.1,20.6,1.1,20.6c0.6,7.3,5,11.6,11.3,11.9
	c0,0,5.9,0.9,20.5,0.9S61,70.8,61,70.8c6.2-0.3,10.7-4.6,11.3-11.9c0,0,1.1-9.2,1.1-20.6c0-11-1.1-20.6-1.1-20.6
	C71.7,10.4,67.3,6,61,5.8C61,5.8,55.2,4.9,40.6,4.9"/>
</svg>
