<?xml version="1.0" encoding="UTF-8"?>
<svg id="_Слой_1" data-name="Слой 1" xmlns="http://www.w3.org/2000/svg" viewBox="0 0 1920 1079.93">
  <defs>
    <style>
      .cls-1 {
        fill: #86d182;
      }

      .cls-2 {
        fill: #fff;
      }

      .cls-3 {
        fill: #37b34a;
      }

      .cls-4 {
        letter-spacing: -.02em;
      }

      .cls-5 {
        fill: #dbdbdb;
      }

      .cls-6 {
        letter-spacing: -.04em;
      }

      .cls-7 {
        letter-spacing: .02em;
      }

      .cls-8 {
        fill: #c9c9c9;
      }

      .cls-9 {
        fill: #edffe1;
      }

      .cls-10 {
        letter-spacing: -.01em;
      }

      .cls-11 {
        letter-spacing: -.03em;
      }

      .cls-12, .cls-13 {
        font-size: 24px;
      }

      .cls-14 {
        letter-spacing: -.08em;
      }

      .cls-13, .cls-15 {
        font-family: Arial-Black, Arial;
        font-weight: 800;
      }

      .cls-16 {
        font-size: 34px;
      }

      .cls-16, .cls-17 {
        font-family: ArialMT, Arial;
      }

      .cls-18 {
        letter-spacing: -.06em;
      }

      .cls-19 {
        letter-spacing: .03em;
      }

      .cls-20 {
        letter-spacing: -.02em;
      }

      .cls-21 {
        letter-spacing: .01em;
      }

      .cls-22 {
        letter-spacing: -.01em;
      }
    </style>
  </defs>
  <rect id="_main_header_" data-name="&amp;lt;main_header&amp;gt;" class="cls-2" width="1920" height="180"/>
  <g id="_logo_" data-name="&amp;lt;logo&amp;gt;">
    <path id="polytechLogo" class="cls-3" d="m122.61,29.46c1.6.63,4.26,4.61,3.62,9.01-3.09,2.41-6.71,4.09-10.23,4.61v27.66h10.44c0,4.3-.64,7.65-1.39,8.91h-19.07v-36.15h-13.32v21.48c0,10.9-6.18,16.14-14.17,16.14-2.24,0-4.9-.31-7.14-.94-1.07-1.36-1.6-5.55-1.7-10.79,5.22,2.51,12.36,3.67,13-4.4v-20.12c-7.99.84-10.87,6.29-13.64,9.96.11-4.93.32-9.43.64-12.47,5.43-5.76,11.61-8.49,23.65-8.49h17.26c4.16.21,8.31-1.36,12.04-4.4m-24.51-7.86c-15.56,0-21.84.94-21.84.94-6.71.31-11.4,4.82-12.04,12.47,0,0-1.17,9.96-1.17,21.59s1.17,21.59,1.17,21.59c.64,7.65,5.33,12.16,12.04,12.47,0,0,6.29.94,21.84.94s21.74-.94,21.74-.94c6.61-.31,11.4-4.82,12.04-12.47,0,0,1.17-9.64,1.17-21.59s-1.17-21.59-1.17-21.59c-.64-7.65-5.33-12.26-12.04-12.47,0,0-6.18-.94-21.74-.94"/>
  </g>
  <text class="cls-13" transform="translate(145.92 61.42)"><tspan x="0" y="0">Название Сайта, я пока хз какое</tspan></text>
  <g>
    <rect id="_menu_block_" data-name="&amp;lt;menu_block&amp;gt;" class="cls-5" y="108.55" width="1920" height="70"/>
    <rect id="_menu_block_-2" data-name="&amp;lt;menu_block&amp;gt;" class="cls-8" x="113" y="108.55" width="300" height="70"/>
    <rect id="_menu_block_-3" data-name="&amp;lt;menu_block&amp;gt;" class="cls-8" x="463" y="108.55" width="300" height="70"/>
    <rect id="_menu_block_-4" data-name="&amp;lt;menu_block&amp;gt;" class="cls-8" x="813" y="108.55" width="300" height="70"/>
    <rect id="_menu_block_-5" data-name="&amp;lt;menu_block&amp;gt;" class="cls-8" x="1163" y="108.55" width="300" height="70"/>
    <rect id="_menu_block_-6" data-name="&amp;lt;menu_block&amp;gt;" class="cls-8" x="1513" y="108.55" width="300" height="70"/>
  </g>
  <rect id="_info_block_" data-name="&amp;lt;info_block&amp;gt;" class="cls-9" y="180" width="1920" height="734.66"/>
  <rect class="cls-1" y="914.66" width="1920" height="165.27"/>
  <text class="cls-12" transform="translate(38.18 216.7)"><tspan class="cls-15"><tspan x="0" y="0">Сюда инфы о чем вообще сайт и нах он нада, лол</tspan></tspan><tspan class="cls-17"><tspan x="0" y="28.8">шоцаышор</tspan><tspan class="cls-20" x="122.89" y="28.8">о</tspan><tspan class="cls-22" x="135.71" y="28.8">та</tspan><tspan x="159.52" y="28.8">ув</tspan><tspan class="cls-22" x="184.27" y="28.8">щ</tspan><tspan x="203.74" y="28.8">оы</tspan><tspan class="cls-20" x="234.34" y="28.8">т</tspan><tspan class="cls-21" x="244.8" y="28.8">л</tspan><tspan class="cls-20" x="259.08" y="28.8">от</tspan><tspan class="cls-21" x="282.36" y="28.8">л</tspan><tspan x="296.64" y="28.8">овы</tspan><tspan class="cls-20" x="339.98" y="28.8">т</tspan><tspan class="cls-21" x="350.45" y="28.8">л</tspan><tspan class="cls-20" x="364.72" y="28.8">о</tspan><tspan class="cls-22" x="377.54" y="28.8">т</tspan><tspan x="388.27" y="28.8">асуц</tspan><tspan class="cls-21" x="439.36" y="28.8">л</tspan><tspan class="cls-20" x="453.63" y="28.8">о</tspan><tspan x="466.45" y="28.8">т</tspan><tspan class="cls-20" x="477.45" y="28.8">ву</tspan><tspan x="501.14" y="28.8">л</tspan><tspan class="cls-14" x="515.14" y="28.8">ь</tspan><tspan class="cls-20" x="525.77" y="28.8">т</tspan><tspan x="536.24" y="28.8">ль</tspan><tspan class="cls-22" x="562.75" y="28.8">в</tspan><tspan x="575.23" y="28.8">ст </tspan><tspan class="cls-21" x="604.89" y="28.8">л</tspan><tspan x="619.16" y="28.8">о</tspan><tspan class="cls-14" x="632.51" y="28.8">ь</tspan><tspan class="cls-21" x="643.14" y="28.8">т</tspan><tspan x="654.4" y="28.8">уц</tspan></tspan><tspan class="cls-17"><tspan x="0" y="57.6">цщш</tspan><tspan class="cls-21" x="52.75" y="57.6">л</tspan><tspan x="67.02" y="57.6">ощ</tspan><tspan class="cls-4" x="100.11" y="57.6">в</tspan><tspan x="112.31" y="57.6">лтьыдлт</tspan><tspan class="cls-22" x="206.06" y="57.6">в</tspan><tspan x="218.54" y="57.6">слтыдь чсль ыл</tspan><tspan class="cls-20" x="394.9" y="57.6">в</tspan><tspan class="cls-22" x="407.12" y="57.6">т</tspan><tspan x="417.84" y="57.6">аммлт</tspan><tspan class="cls-22" x="489.19" y="57.6">в</tspan><tspan x="501.67" y="57.6">а</tspan><tspan class="cls-20" x="515.02" y="57.6">о</tspan><tspan x="527.84" y="57.6">л</tspan><tspan class="cls-22" x="541.84" y="57.6">т</tspan><tspan x="552.56" y="57.6">а</tspan><tspan class="cls-4" x="565.91" y="57.6">в</tspan><tspan x="578.11" y="57.6">лд</tspan><tspan class="cls-20" x="606.12" y="57.6">о</tspan><tspan x="618.94" y="57.6">твы</tspan><tspan class="cls-21" x="659.93" y="57.6">л</tspan><tspan x="674.2" y="57.6">о</tspan></tspan><tspan class="cls-17"><tspan class="cls-22" x="0" y="86.4">в</tspan><tspan x="12.48" y="86.4">ацущы</tspan><tspan class="cls-21" x="88.57" y="86.4">л</tspan><tspan class="cls-20" x="102.84" y="86.4">о</tspan><tspan x="115.66" y="86.4">твш</tspan><tspan class="cls-22" x="158.66" y="86.4">щ</tspan><tspan class="cls-20" x="178.14" y="86.4">о</tspan><tspan x="190.96" y="86.4">лы</tspan><tspan class="cls-20" x="222.21" y="86.4">т</tspan><tspan class="cls-21" x="232.68" y="86.4">л</tspan><tspan x="246.95" y="86.4">ос</tspan><tspan class="cls-20" x="272.3" y="86.4">тл</tspan><tspan x="296.24" y="86.4">чоя</tspan><tspan class="cls-20" x="335.09" y="86.4">т</tspan><tspan class="cls-21" x="345.55" y="86.4">л</tspan><tspan x="359.82" y="86.4">оствы</tspan><tspan class="cls-21" x="426.16" y="86.4">л</tspan><tspan class="cls-20" x="440.44" y="86.4">о</tspan><tspan x="453.26" y="86.4">т ас</tspan><tspan class="cls-21" x="496.27" y="86.4">л</tspan><tspan class="cls-20" x="510.54" y="86.4">о</tspan><tspan x="523.36" y="86.4">т л</tspan><tspan class="cls-10" x="555.02" y="86.4">у</tspan><tspan x="566.73" y="86.4">оа</tspan><tspan class="cls-20" x="593.43" y="86.4">в</tspan><tspan x="605.65" y="86.4">т лмо</tspan></tspan><tspan class="cls-17"><tspan class="cls-22" x="0" y="115.2">в</tspan><tspan x="12.48" y="115.2">с</tspan><tspan class="cls-22" x="24.48" y="115.2">ц</tspan><tspan class="cls-20" x="37.96" y="115.2">о</tspan><tspan x="50.78" y="115.2">л</tspan><tspan class="cls-22" x="64.78" y="115.2">т</tspan><tspan class="cls-21" x="75.5" y="115.2">с</tspan><tspan x="87.77" y="115.2">о</tspan><tspan class="cls-20" x="101.12" y="115.2">р</tspan><tspan x="113.94" y="115.2">тиыо</tspan><tspan class="cls-20" x="168.94" y="115.2">р</tspan><tspan x="181.76" y="115.2">твис </tspan><tspan class="cls-20" x="237.57" y="115.2">о</tspan><tspan x="250.39" y="115.2">тиы</tspan><tspan class="cls-4" x="292.04" y="115.2">в</tspan><tspan class="cls-21" x="304.24" y="115.2">л</tspan><tspan x="318.52" y="115.2">оаим</tspan><tspan class="cls-21" x="375.12" y="115.2">л</tspan><tspan x="389.39" y="115.2">о</tspan><tspan class="cls-22" x="402.74" y="115.2">в</tspan><tspan x="415.22" y="115.2">аи</tspan><tspan class="cls-21" x="441.97" y="115.2">л</tspan><tspan x="456.25" y="115.2">ои а л</tspan><tspan class="cls-21" x="523.69" y="115.2">с</tspan><tspan class="cls-20" x="535.96" y="115.2">о</tspan><tspan x="548.78" y="115.2">ти </tspan><tspan class="cls-4" x="579.84" y="115.2">в</tspan><tspan class="cls-21" x="592.04" y="115.2">л</tspan><tspan class="cls-20" x="606.32" y="115.2">о</tspan><tspan x="619.14" y="115.2">т </tspan></tspan><tspan class="cls-17"><tspan x="0" y="144">сувшгывр</tspan><tspan class="cls-22" x="108.11" y="144">в</tspan><tspan x="120.59" y="144">сшоыи</tspan><tspan class="cls-20" x="195.84" y="144">т</tspan><tspan class="cls-21" x="206.31" y="144">л</tspan><tspan x="220.58" y="144">освы</tspan><tspan class="cls-20" x="275.93" y="144">т</tspan><tspan class="cls-21" x="286.39" y="144">л</tspan><tspan x="300.67" y="144">ои</tspan><tspan class="cls-22" x="327.42" y="144">т</tspan><tspan class="cls-21" x="338.14" y="144">с</tspan><tspan class="cls-20" x="350.41" y="144">о</tspan><tspan x="363.23" y="144">лыви</tspan><tspan class="cls-20" x="420.64" y="144">о</tspan><tspan x="433.46" y="144">лиыф</tspan><tspan class="cls-4" x="497.87" y="144">в</tspan><tspan class="cls-21" x="510.07" y="144">л</tspan><tspan x="524.34" y="144">оивы</tspan><tspan class="cls-20" x="581.1" y="144">о</tspan><tspan x="593.92" y="144">л</tspan></tspan><tspan class="cls-17"><tspan x="0" y="172.8">цувщлсттыш</tspan><tspan class="cls-20" x="142.73" y="172.8">о</tspan><tspan class="cls-22" x="155.55" y="172.8">т</tspan><tspan x="166.28" y="172.8">с</tspan><tspan class="cls-21" x="178.28" y="172.8">л</tspan><tspan x="192.55" y="172.8">оыт</tspan><tspan class="cls-20" x="234.14" y="172.8">ф</tspan><tspan x="253.36" y="172.8">лд</tspan><tspan class="cls-22" x="281.37" y="172.8">в</tspan><tspan x="293.85" y="172.8">м</tspan><tspan class="cls-22" x="310.35" y="172.8">т</tspan><tspan x="321.07" y="172.8">с</tspan><tspan class="cls-22" x="333.07" y="172.8">щ</tspan><tspan class="cls-20" x="352.55" y="172.8">о</tspan><tspan x="365.37" y="172.8">луытщ</tspan><tspan class="cls-21" x="439.36" y="172.8">л</tspan><tspan x="453.63" y="172.8">омт</tspan><tspan class="cls-22" x="494.47" y="172.8">в</tspan><tspan x="506.95" y="172.8">аы</tspan><tspan class="cls-21" x="537.55" y="172.8">л</tspan><tspan x="551.82" y="172.8">ом</tspan><tspan class="cls-20" x="581.67" y="172.8">ат</tspan><tspan class="cls-21" x="604.96" y="172.8">л</tspan><tspan x="619.23" y="172.8">оав</tspan></tspan><tspan class="cls-17"><tspan class="cls-21" x="0" y="201.6">м</tspan><tspan x="16.77" y="201.6">у</tspan><tspan class="cls-22" x="28.77" y="201.6">щ</tspan><tspan class="cls-20" x="48.25" y="201.6">о</tspan><tspan x="61.07" y="201.6">тмшоыт</tspan><tspan class="cls-4" x="149.4" y="201.6">в</tspan><tspan class="cls-21" x="161.6" y="201.6">л</tspan><tspan class="cls-20" x="175.88" y="201.6">от</tspan><tspan class="cls-21" x="199.16" y="201.6">л</tspan><tspan class="cls-20" x="213.43" y="201.6">о</tspan><tspan x="226.25" y="201.6">т </tspan><tspan class="cls-10" x="243.91" y="201.6">у</tspan><tspan class="cls-20" x="255.62" y="201.6">о</tspan><tspan x="268.44" y="201.6">л</tspan><tspan class="cls-20" x="282.45" y="201.6">а</tspan><tspan x="295.27" y="201.6">тм</tspan><tspan class="cls-4" x="322.76" y="201.6">в</tspan><tspan class="cls-21" x="334.96" y="201.6">л</tspan><tspan class="cls-20" x="349.23" y="201.6">о</tspan><tspan x="362.05" y="201.6">т а</tspan><tspan class="cls-20" x="393.06" y="201.6">в</tspan><tspan class="cls-22" x="405.28" y="201.6">у</tspan><tspan x="417.01" y="201.6">м</tspan><tspan class="cls-21" x="433.51" y="201.6">л</tspan><tspan class="cls-20" x="447.79" y="201.6">о</tspan><tspan x="460.61" y="201.6">т м</tspan><tspan class="cls-22" x="494.77" y="201.6">а</tspan><tspan class="cls-20" x="507.84" y="201.6">у</tspan><tspan class="cls-21" x="519.32" y="201.6">л</tspan><tspan class="cls-20" x="533.59" y="201.6">о</tspan><tspan x="546.41" y="201.6">т </tspan><tspan class="cls-21" x="564.07" y="201.6">л</tspan><tspan x="578.34" y="201.6">о</tspan><tspan class="cls-21" x="591.69" y="201.6">м</tspan><tspan class="cls-22" x="608.46" y="201.6">у</tspan><tspan x="620.19" y="201.6">а</tspan></tspan><tspan class="cls-17"><tspan x="0" y="230.4">а</tspan><tspan class="cls-21" x="13.35" y="230.4">м</tspan><tspan x="30.12" y="230.4">ущджл</tspan><tspan class="cls-22" x="105.93" y="230.4">в</tspan><tspan x="118.41" y="230.4">о</tspan><tspan class="cls-14" x="131.75" y="230.4">ь</tspan><tspan class="cls-19" x="142.38" y="230.4">т</tspan><tspan x="154.17" y="230.4">жш</tspan><tspan class="cls-20" x="189.48" y="230.4">о</tspan><tspan x="202.3" y="230.4">лщм</tspan><tspan class="cls-22" x="252.55" y="230.4">т</tspan><tspan class="cls-20" x="263.27" y="230.4">о</tspan><tspan class="cls-21" x="276.09" y="230.4">т</tspan><tspan class="cls-22" x="287.36" y="230.4">у</tspan><tspan x="299.09" y="230.4">амфш</tspan><tspan class="cls-21" x="367.93" y="230.4">л</tspan><tspan class="cls-20" x="382.21" y="230.4">о</tspan><tspan class="cls-22" x="395.03" y="230.4">т</tspan><tspan x="405.75" y="230.4">ам</tspan><tspan class="cls-4" x="435.6" y="230.4">в</tspan><tspan class="cls-21" x="447.8" y="230.4">л</tspan><tspan class="cls-20" x="462.07" y="230.4">о</tspan><tspan x="474.89" y="230.4">тмкщ</tspan><tspan class="cls-22" x="532.63" y="230.4">ц</tspan><tspan class="cls-20" x="546.11" y="230.4">о</tspan><tspan x="558.93" y="230.4">лт</tspan><tspan class="cls-22" x="583.92" y="230.4">щ</tspan><tspan class="cls-20" x="603.4" y="230.4">о</tspan><tspan x="616.22" y="230.4">лм</tspan><tspan class="cls-21" x="646.72" y="230.4">к</tspan><tspan x="657.49" y="230.4">т</tspan></tspan><tspan class="cls-17"><tspan x="0" y="288">эцщдлтмвыафщл</tspan><tspan class="cls-20" x="198.08" y="288">ф</tspan><tspan x="217.3" y="288">тмдц</tspan><tspan class="cls-20" x="272.54" y="288">ф</tspan><tspan x="291.76" y="288">лтщлдтм</tspan><tspan class="cls-22" x="392" y="288">в</tspan><tspan x="404.48" y="288">адлтм</tspan><tspan class="cls-22" x="473.33" y="288">в</tspan><tspan x="485.81" y="288">алд</tspan><tspan class="cls-20" x="527.17" y="288">от</tspan><tspan x="550.45" y="288">лао</tspan><tspan class="cls-20" x="591.15" y="288">в</tspan><tspan x="603.38" y="288">т</tspan></tspan><tspan class="cls-17"><tspan x="0" y="345.6">ьлмцт </tspan><tspan class="cls-20" x="74.41" y="345.6">о</tspan><tspan x="87.23" y="345.6">лсфм</tspan><tspan class="cls-20" x="149.48" y="345.6">ат</tspan><tspan class="cls-21" x="172.77" y="345.6">л</tspan><tspan x="187.04" y="345.6">оц</tspan><tspan class="cls-20" x="214.14" y="345.6">ф</tspan><tspan x="233.36" y="345.6">тм</tspan><tspan class="cls-21" x="260.85" y="345.6">л</tspan><tspan x="275.12" y="345.6">оыыт</tspan><tspan class="cls-22" x="333.96" y="345.6">в</tspan><tspan x="346.44" y="345.6">я</tspan><tspan class="cls-21" x="359.44" y="345.6">л</tspan><tspan x="373.71" y="345.6">оаивш</tspan><tspan class="cls-20" x="445.82" y="345.6">о</tspan><tspan x="458.64" y="345.6">ти</tspan><tspan class="cls-21" x="483.04" y="345.6">м</tspan><tspan class="cls-22" x="499.8" y="345.6">у</tspan><tspan x="511.54" y="345.6">а</tspan><tspan class="cls-21" x="524.88" y="345.6">л</tspan><tspan x="539.16" y="345.6">ои</tspan><tspan class="cls-22" x="565.91" y="345.6">у</tspan><tspan x="577.64" y="345.6">ам</tspan><tspan class="cls-20" x="607.49" y="345.6">ф</tspan><tspan class="cls-21" x="626.71" y="345.6">л</tspan><tspan class="cls-20" x="640.98" y="345.6">о</tspan><tspan x="653.8" y="345.6">т</tspan></tspan><tspan class="cls-17"><tspan x="0" y="374.4">цущш</tspan><tspan class="cls-21" x="64.75" y="374.4">л</tspan><tspan x="79.02" y="374.4">о</tspan><tspan class="cls-22" x="92.37" y="374.4">ц</tspan><tspan x="105.84" y="374.4">свш</tspan><tspan class="cls-22" x="149.85" y="374.4">щ</tspan><tspan class="cls-20" x="169.32" y="374.4">о</tspan><tspan x="182.14" y="374.4">тыфв</tspan><tspan class="cls-22" x="242.88" y="374.4">щ</tspan><tspan x="262.36" y="374.4">омтщыф</tspan><tspan class="cls-22" x="359.94" y="374.4">в</tspan><tspan x="372.42" y="374.4">а</tspan><tspan class="cls-20" x="385.77" y="374.4">о</tspan><tspan x="398.59" y="374.4">тзщйцлщщшцр-щ</tspan><tspan class="cls-22" x="595.07" y="374.4">х</tspan><tspan x="606.8" y="374.4">омщ</tspan></tspan></text>
  <text class="cls-12" transform="translate(1008.01 221.52)"><tspan class="cls-15"><tspan x="0" y="0">Как пользоваться сайтом, для особо тупых</tspan></tspan><tspan class="cls-17"><tspan x="0" y="28.8">шоцаышор</tspan><tspan class="cls-20" x="122.89" y="28.8">о</tspan><tspan class="cls-22" x="135.71" y="28.8">та</tspan><tspan x="159.52" y="28.8">ув</tspan><tspan class="cls-22" x="184.27" y="28.8">щ</tspan><tspan x="203.74" y="28.8">оы</tspan><tspan class="cls-20" x="234.34" y="28.8">т</tspan><tspan class="cls-21" x="244.8" y="28.8">л</tspan><tspan class="cls-20" x="259.08" y="28.8">от</tspan><tspan class="cls-21" x="282.36" y="28.8">л</tspan><tspan x="296.64" y="28.8">овы</tspan><tspan class="cls-20" x="339.98" y="28.8">т</tspan><tspan class="cls-21" x="350.45" y="28.8">л</tspan><tspan class="cls-20" x="364.72" y="28.8">о</tspan><tspan class="cls-22" x="377.54" y="28.8">т</tspan><tspan x="388.27" y="28.8">асуц</tspan><tspan class="cls-21" x="439.36" y="28.8">л</tspan><tspan class="cls-20" x="453.63" y="28.8">о</tspan><tspan x="466.45" y="28.8">т</tspan><tspan class="cls-20" x="477.45" y="28.8">ву</tspan><tspan x="501.14" y="28.8">л</tspan><tspan class="cls-14" x="515.14" y="28.8">ь</tspan><tspan class="cls-20" x="525.77" y="28.8">т</tspan><tspan x="536.24" y="28.8">ль</tspan><tspan class="cls-22" x="562.75" y="28.8">в</tspan><tspan x="575.23" y="28.8">ст </tspan><tspan class="cls-21" x="604.89" y="28.8">л</tspan><tspan x="619.16" y="28.8">о</tspan><tspan class="cls-14" x="632.51" y="28.8">ь</tspan><tspan class="cls-21" x="643.14" y="28.8">т</tspan><tspan x="654.4" y="28.8">уц</tspan></tspan><tspan class="cls-17"><tspan x="0" y="57.6">цщш</tspan><tspan class="cls-21" x="52.75" y="57.6">л</tspan><tspan x="67.02" y="57.6">ощ</tspan><tspan class="cls-4" x="100.11" y="57.6">в</tspan><tspan x="112.31" y="57.6">лтьыдлт</tspan><tspan class="cls-22" x="206.06" y="57.6">в</tspan><tspan x="218.54" y="57.6">слтыдь чсль ыл</tspan><tspan class="cls-20" x="394.9" y="57.6">в</tspan><tspan class="cls-22" x="407.12" y="57.6">т</tspan><tspan x="417.84" y="57.6">аммлт</tspan><tspan class="cls-22" x="489.19" y="57.6">в</tspan><tspan x="501.67" y="57.6">а</tspan><tspan class="cls-20" x="515.02" y="57.6">о</tspan><tspan x="527.84" y="57.6">л</tspan><tspan class="cls-22" x="541.84" y="57.6">т</tspan><tspan x="552.56" y="57.6">а</tspan><tspan class="cls-4" x="565.91" y="57.6">в</tspan><tspan x="578.11" y="57.6">лд</tspan><tspan class="cls-20" x="606.12" y="57.6">о</tspan><tspan x="618.94" y="57.6">твы</tspan><tspan class="cls-21" x="659.93" y="57.6">л</tspan><tspan x="674.2" y="57.6">о</tspan></tspan><tspan class="cls-17"><tspan class="cls-22" x="0" y="86.4">в</tspan><tspan x="12.48" y="86.4">ацущы</tspan><tspan class="cls-21" x="88.57" y="86.4">л</tspan><tspan class="cls-20" x="102.84" y="86.4">о</tspan><tspan x="115.66" y="86.4">твш</tspan><tspan class="cls-22" x="158.66" y="86.4">щ</tspan><tspan class="cls-20" x="178.14" y="86.4">о</tspan><tspan x="190.96" y="86.4">лы</tspan><tspan class="cls-20" x="222.21" y="86.4">т</tspan><tspan class="cls-21" x="232.68" y="86.4">л</tspan><tspan x="246.95" y="86.4">ос</tspan><tspan class="cls-20" x="272.3" y="86.4">тл</tspan><tspan x="296.24" y="86.4">чоя</tspan><tspan class="cls-20" x="335.09" y="86.4">т</tspan><tspan class="cls-21" x="345.55" y="86.4">л</tspan><tspan x="359.82" y="86.4">оствы</tspan><tspan class="cls-21" x="426.16" y="86.4">л</tspan><tspan class="cls-20" x="440.44" y="86.4">о</tspan><tspan x="453.26" y="86.4">т ас</tspan><tspan class="cls-21" x="496.27" y="86.4">л</tspan><tspan class="cls-20" x="510.54" y="86.4">о</tspan><tspan x="523.36" y="86.4">т л</tspan><tspan class="cls-10" x="555.02" y="86.4">у</tspan><tspan x="566.73" y="86.4">оа</tspan><tspan class="cls-20" x="593.43" y="86.4">в</tspan><tspan x="605.65" y="86.4">т лмо</tspan></tspan><tspan class="cls-17"><tspan class="cls-22" x="0" y="115.2">в</tspan><tspan x="12.48" y="115.2">с</tspan><tspan class="cls-22" x="24.48" y="115.2">ц</tspan><tspan class="cls-20" x="37.96" y="115.2">о</tspan><tspan x="50.78" y="115.2">л</tspan><tspan class="cls-22" x="64.78" y="115.2">т</tspan><tspan class="cls-21" x="75.5" y="115.2">с</tspan><tspan x="87.77" y="115.2">о</tspan><tspan class="cls-20" x="101.12" y="115.2">р</tspan><tspan x="113.94" y="115.2">тиыо</tspan><tspan class="cls-20" x="168.94" y="115.2">р</tspan><tspan x="181.76" y="115.2">твис </tspan><tspan class="cls-20" x="237.57" y="115.2">о</tspan><tspan x="250.39" y="115.2">тиы</tspan><tspan class="cls-4" x="292.04" y="115.2">в</tspan><tspan class="cls-21" x="304.24" y="115.2">л</tspan><tspan x="318.52" y="115.2">оаим</tspan><tspan class="cls-21" x="375.12" y="115.2">л</tspan><tspan x="389.39" y="115.2">о</tspan><tspan class="cls-22" x="402.74" y="115.2">в</tspan><tspan x="415.22" y="115.2">аи</tspan><tspan class="cls-21" x="441.97" y="115.2">л</tspan><tspan x="456.25" y="115.2">ои а л</tspan><tspan class="cls-21" x="523.69" y="115.2">с</tspan><tspan class="cls-20" x="535.96" y="115.2">о</tspan><tspan x="548.78" y="115.2">ти </tspan><tspan class="cls-4" x="579.84" y="115.2">в</tspan><tspan class="cls-21" x="592.04" y="115.2">л</tspan><tspan class="cls-20" x="606.32" y="115.2">о</tspan><tspan x="619.14" y="115.2">т </tspan></tspan><tspan class="cls-17"><tspan x="0" y="144">сувшгывр</tspan><tspan class="cls-22" x="108.11" y="144">в</tspan><tspan x="120.59" y="144">сшоыи</tspan><tspan class="cls-20" x="195.84" y="144">т</tspan><tspan class="cls-21" x="206.31" y="144">л</tspan><tspan x="220.58" y="144">освы</tspan><tspan class="cls-20" x="275.93" y="144">т</tspan><tspan class="cls-21" x="286.39" y="144">л</tspan><tspan x="300.67" y="144">ои</tspan><tspan class="cls-22" x="327.42" y="144">т</tspan><tspan class="cls-21" x="338.14" y="144">с</tspan><tspan class="cls-20" x="350.41" y="144">о</tspan><tspan x="363.23" y="144">лыви</tspan><tspan class="cls-20" x="420.64" y="144">о</tspan><tspan x="433.46" y="144">лиыф</tspan><tspan class="cls-4" x="497.87" y="144">в</tspan><tspan class="cls-21" x="510.07" y="144">л</tspan><tspan x="524.34" y="144">оивы</tspan><tspan class="cls-20" x="581.1" y="144">о</tspan><tspan x="593.92" y="144">л</tspan></tspan><tspan class="cls-17"><tspan x="0" y="172.8">цувщлсттыш</tspan><tspan class="cls-20" x="142.73" y="172.8">о</tspan><tspan class="cls-22" x="155.55" y="172.8">т</tspan><tspan x="166.28" y="172.8">с</tspan><tspan class="cls-21" x="178.28" y="172.8">л</tspan><tspan x="192.55" y="172.8">оыт</tspan><tspan class="cls-20" x="234.14" y="172.8">ф</tspan><tspan x="253.36" y="172.8">лд</tspan><tspan class="cls-22" x="281.37" y="172.8">в</tspan><tspan x="293.85" y="172.8">м</tspan><tspan class="cls-22" x="310.35" y="172.8">т</tspan><tspan x="321.07" y="172.8">с</tspan><tspan class="cls-22" x="333.07" y="172.8">щ</tspan><tspan class="cls-20" x="352.55" y="172.8">о</tspan><tspan x="365.37" y="172.8">луытщ</tspan><tspan class="cls-21" x="439.36" y="172.8">л</tspan><tspan x="453.63" y="172.8">омт</tspan><tspan class="cls-22" x="494.47" y="172.8">в</tspan><tspan x="506.95" y="172.8">аы</tspan><tspan class="cls-21" x="537.55" y="172.8">л</tspan><tspan x="551.82" y="172.8">ом</tspan><tspan class="cls-20" x="581.67" y="172.8">ат</tspan><tspan class="cls-21" x="604.96" y="172.8">л</tspan><tspan x="619.23" y="172.8">оав</tspan></tspan><tspan class="cls-17"><tspan class="cls-21" x="0" y="201.6">м</tspan><tspan x="16.77" y="201.6">у</tspan><tspan class="cls-22" x="28.77" y="201.6">щ</tspan><tspan class="cls-20" x="48.25" y="201.6">о</tspan><tspan x="61.07" y="201.6">тмшоыт</tspan><tspan class="cls-4" x="149.4" y="201.6">в</tspan><tspan class="cls-21" x="161.6" y="201.6">л</tspan><tspan class="cls-20" x="175.88" y="201.6">от</tspan><tspan class="cls-21" x="199.16" y="201.6">л</tspan><tspan class="cls-20" x="213.43" y="201.6">о</tspan><tspan x="226.25" y="201.6">т </tspan><tspan class="cls-10" x="243.91" y="201.6">у</tspan><tspan class="cls-20" x="255.62" y="201.6">о</tspan><tspan x="268.44" y="201.6">л</tspan><tspan class="cls-20" x="282.45" y="201.6">а</tspan><tspan x="295.27" y="201.6">тм</tspan><tspan class="cls-4" x="322.76" y="201.6">в</tspan><tspan class="cls-21" x="334.96" y="201.6">л</tspan><tspan class="cls-20" x="349.23" y="201.6">о</tspan><tspan x="362.05" y="201.6">т а</tspan><tspan class="cls-20" x="393.06" y="201.6">в</tspan><tspan class="cls-22" x="405.28" y="201.6">у</tspan><tspan x="417.01" y="201.6">м</tspan><tspan class="cls-21" x="433.51" y="201.6">л</tspan><tspan class="cls-20" x="447.79" y="201.6">о</tspan><tspan x="460.61" y="201.6">т м</tspan><tspan class="cls-22" x="494.77" y="201.6">а</tspan><tspan class="cls-20" x="507.84" y="201.6">у</tspan><tspan class="cls-21" x="519.32" y="201.6">л</tspan><tspan class="cls-20" x="533.59" y="201.6">о</tspan><tspan x="546.41" y="201.6">т </tspan><tspan class="cls-21" x="564.07" y="201.6">л</tspan><tspan x="578.34" y="201.6">о</tspan><tspan class="cls-21" x="591.69" y="201.6">м</tspan><tspan class="cls-22" x="608.46" y="201.6">у</tspan><tspan x="620.19" y="201.6">а</tspan></tspan><tspan class="cls-17"><tspan x="0" y="230.4">а</tspan><tspan class="cls-21" x="13.35" y="230.4">м</tspan><tspan x="30.12" y="230.4">ущджл</tspan><tspan class="cls-22" x="105.93" y="230.4">в</tspan><tspan x="118.41" y="230.4">о</tspan><tspan class="cls-14" x="131.75" y="230.4">ь</tspan><tspan class="cls-19" x="142.38" y="230.4">т</tspan><tspan x="154.17" y="230.4">жш</tspan><tspan class="cls-20" x="189.48" y="230.4">о</tspan><tspan x="202.3" y="230.4">лщм</tspan><tspan class="cls-22" x="252.55" y="230.4">т</tspan><tspan class="cls-20" x="263.27" y="230.4">о</tspan><tspan class="cls-21" x="276.09" y="230.4">т</tspan><tspan class="cls-22" x="287.36" y="230.4">у</tspan><tspan x="299.09" y="230.4">амфш</tspan><tspan class="cls-21" x="367.93" y="230.4">л</tspan><tspan class="cls-20" x="382.21" y="230.4">о</tspan><tspan class="cls-22" x="395.03" y="230.4">т</tspan><tspan x="405.75" y="230.4">ам</tspan><tspan class="cls-4" x="435.6" y="230.4">в</tspan><tspan class="cls-21" x="447.8" y="230.4">л</tspan><tspan class="cls-20" x="462.07" y="230.4">о</tspan><tspan x="474.89" y="230.4">тмкщ</tspan><tspan class="cls-22" x="532.63" y="230.4">ц</tspan><tspan class="cls-20" x="546.11" y="230.4">о</tspan><tspan x="558.93" y="230.4">лт</tspan><tspan class="cls-22" x="583.92" y="230.4">щ</tspan><tspan class="cls-20" x="603.4" y="230.4">о</tspan><tspan x="616.22" y="230.4">лм</tspan><tspan class="cls-21" x="646.72" y="230.4">к</tspan><tspan x="657.49" y="230.4">т</tspan></tspan><tspan class="cls-17"><tspan x="0" y="288">эцщдлтмвыафщл</tspan><tspan class="cls-20" x="198.08" y="288">ф</tspan><tspan x="217.3" y="288">тмдц</tspan><tspan class="cls-20" x="272.54" y="288">ф</tspan><tspan x="291.76" y="288">лтщлдтм</tspan><tspan class="cls-22" x="392" y="288">в</tspan><tspan x="404.48" y="288">адлтм</tspan><tspan class="cls-22" x="473.33" y="288">в</tspan><tspan x="485.81" y="288">алд</tspan><tspan class="cls-20" x="527.17" y="288">от</tspan><tspan x="550.45" y="288">лао</tspan><tspan class="cls-20" x="591.15" y="288">в</tspan><tspan x="603.38" y="288">т</tspan></tspan><tspan class="cls-17"><tspan x="0" y="345.6">ьлмцт </tspan><tspan class="cls-20" x="74.41" y="345.6">о</tspan><tspan x="87.23" y="345.6">лсфм</tspan><tspan class="cls-20" x="149.48" y="345.6">ат</tspan><tspan class="cls-21" x="172.77" y="345.6">л</tspan><tspan x="187.04" y="345.6">оц</tspan><tspan class="cls-20" x="214.14" y="345.6">ф</tspan><tspan x="233.36" y="345.6">тм</tspan><tspan class="cls-21" x="260.85" y="345.6">л</tspan><tspan x="275.12" y="345.6">оыыт</tspan><tspan class="cls-22" x="333.96" y="345.6">в</tspan><tspan x="346.44" y="345.6">я</tspan><tspan class="cls-21" x="359.44" y="345.6">л</tspan><tspan x="373.71" y="345.6">оаивш</tspan><tspan class="cls-20" x="445.82" y="345.6">о</tspan><tspan x="458.64" y="345.6">ти</tspan><tspan class="cls-21" x="483.04" y="345.6">м</tspan><tspan class="cls-22" x="499.8" y="345.6">у</tspan><tspan x="511.54" y="345.6">а</tspan><tspan class="cls-21" x="524.88" y="345.6">л</tspan><tspan x="539.16" y="345.6">ои</tspan><tspan class="cls-22" x="565.91" y="345.6">у</tspan><tspan x="577.64" y="345.6">ам</tspan><tspan class="cls-20" x="607.49" y="345.6">ф</tspan><tspan class="cls-21" x="626.71" y="345.6">л</tspan><tspan class="cls-20" x="640.98" y="345.6">о</tspan><tspan x="653.8" y="345.6">т</tspan></tspan><tspan class="cls-17"><tspan x="0" y="374.4">цущш</tspan><tspan class="cls-21" x="64.75" y="374.4">л</tspan><tspan x="79.02" y="374.4">о</tspan><tspan class="cls-22" x="92.37" y="374.4">ц</tspan><tspan x="105.84" y="374.4">свш</tspan><tspan class="cls-22" x="149.85" y="374.4">щ</tspan><tspan class="cls-20" x="169.32" y="374.4">о</tspan><tspan x="182.14" y="374.4">тыфв</tspan><tspan class="cls-22" x="242.88" y="374.4">щ</tspan><tspan x="262.36" y="374.4">омтщыф</tspan><tspan class="cls-22" x="359.94" y="374.4">в</tspan><tspan x="372.42" y="374.4">а</tspan><tspan class="cls-20" x="385.77" y="374.4">о</tspan><tspan x="398.59" y="374.4">тзщйцлщщшцр-щ</tspan><tspan class="cls-22" x="595.07" y="374.4">х</tspan><tspan x="606.8" y="374.4">омщ</tspan></tspan></text>
  <text class="cls-16" transform="translate(164 150.05)"><tspan class="cls-18" x="0" y="0">Г</tspan><tspan x="16.5" y="0">лавы </tspan><tspan class="cls-21" x="107.2" y="0">к</tspan><tspan class="cls-22" x="122.45" y="0">у</tspan><tspan x="139.07" y="0">р</tspan><tspan class="cls-21" x="157.98" y="0">с</tspan><tspan x="175.36" y="0">ов</tspan></text>
  <text class="cls-16" transform="translate(511.33 150.69)"><tspan class="cls-7" x="0" y="0">к</tspan><tspan x="15.62" y="0">ак заг</tspan><tspan class="cls-22" x="105.75" y="0">р</tspan><tspan x="124.28" y="0">узить</tspan></text>
  <text class="cls-16" transform="translate(863.92 150.05)"><tspan x="0" y="0">Информация </tspan></text>
  <text class="cls-16" transform="translate(1218.01 150.05)"><tspan class="cls-21" x="0" y="0">с</tspan><tspan class="cls-22" x="17.38" y="0">о</tspan><tspan class="cls-20" x="35.91" y="0">з</tspan><tspan x="50.75" y="0">д</tspan><tspan class="cls-20" x="70.59" y="0">а</tspan><tspan class="cls-22" x="88.75" y="0">т</tspan><tspan class="cls-11" x="103.94" y="0">е</tspan><tspan x="121.72" y="0">ли </tspan></text>
  <text class="cls-16" transform="translate(1561.87 155.05)"><tspan x="0" y="0">лишний </tspan><tspan class="cls-6" x="132.31" y="0">б</tspan><tspan class="cls-21" x="150.26" y="0">л</tspan><tspan x="170.48" y="0">ок </tspan></text>
  <text class="cls-16" transform="translate(63.06 1004.84)"><tspan x="0" y="0">А ч</tspan><tspan class="cls-22" x="49.84" y="0">т</tspan><tspan x="65.03" y="0">о в </tspan><tspan class="cls-22" x="120.89" y="0">ф</tspan><tspan x="148.48" y="0">у</tspan><tspan class="cls-22" x="165.48" y="0">т</tspan><tspan x="180.67" y="0">ере пис</tspan><tspan class="cls-20" x="301.25" y="0">а</tspan><tspan x="319.41" y="0">ть? Купи </tspan><tspan class="cls-22" x="464.71" y="0">в</tspan><tspan x="482.39" y="0">а</tspan><tspan class="cls-21" x="501.3" y="0">к</tspan><tspan x="516.56" y="0">у</tspan></text>
</svg>